:SAMPLES-PER-SECOND 30
:FULLY-SPECIFIED
:DEGREES
230
root  -17.239 33.4227 -12.9482 -179.816 13.5589 178.694
RightUpLeg  -17.4996 -7.52228 -3.43791
RightLeg  32.87 0.649745 0.34958
RightFoot  -5.94085 -0.022495 0.110805
RightToes  -27.5944 -0.127711 -0.234904
Spine  -0.397752 0.123121 1.61499
Spine1  -0.624901 0.347596 4.00307
HEad  -64.7602 -2.56076 5.46198
LeftShoulder1  -1.94126e-019 -3.10601e-018 -2.51263e-017
LeftArm  12.1233 -19.9673 -79.9984
LeftForeArm  164.458 -62.8818 -160.055
LeftHand  -1.28387 -3.33866 17.233
RightShoulder  -4.96962e-017 0 -2.36833e-017
RightArm  10.8624 20.1608 77.5656
RightForeArm  -174.312 66.3846 159.305
RightHand  -0.305747 -4.32998 -32.9683
LeftUpLeg  -13.1344 13.4481 3.88412
LeftLeg  34.7275 10.2591 6.11379
LeftFoot  -6.88814 -0.0861327 -1.26957
LeftToes  -20.045 1.7763e-006 6.54387e-008
231
root  -17.2643 33.1871 -12.9641 179.775 10.864 178.713
RightUpLeg  -17.8914 -9.48239 -3.72777
RightLeg  35.5183 0.0303813 0.00193675
RightFoot  -7.50668 -0.0229432 0.196997
RightToes  -26.5815 -0.121103 -0.227519
Spine  -0.254499 0.185585 1.48782
Spine1  -0.336162 0.492787 3.72653
HEad  -65.3836 -4.01132 5.81991
LeftShoulder1  -1.94126e-019 -3.10601e-018 -2.51263e-017
LeftArm  8.22405 -19.6932 -79.7127
LeftForeArm  160.452 -63.5771 -159.069
LeftHand  -1.17049 -2.1648 18.0975
RightShoulder  -4.96962e-017 0 -2.36833e-017
RightArm  6.45945 19.5169 76.6898
RightForeArm  -175.808 66.0411 159.476
RightHand  -0.141932 -4.90144 -33.6408
LeftUpLeg  -14.3983 12.7425 3.98085
LeftLeg  37.046 8.30199 5.42545
LeftFoot  -7.98218 -0.0953783 -1.20543
LeftToes  -21.7307 1.7763e-006 6.54387e-008
232
root  -17.2776 33.0308 -13.0058 179.502 8.16711 178.799
RightUpLeg  -17.8144 -11.7027 -3.99296
RightLeg  37.1201 -0.353797 -0.252952
RightFoot  -8.58006 -0.0206345 0.273454
RightToes  -26.099 -0.118002 -0.22396
Spine  -0.139463 0.247864 1.37538
Spine1  -0.104871 0.628822 3.48495
HEad  -65.4627 -5.3853 6.0801
LeftShoulder1  -1.94126e-019 -3.10601e-018 -2.51263e-017
LeftArm  4.99339 -19.2662 -79.1577
LeftForeArm  159.126 -63.9034 -158.646
LeftHand  -1.07377 -0.933839 19.7513
RightShoulder  -4.96962e-017 0 -2.36833e-017
RightArm  2.49434 18.8404 76.5409
RightForeArm  -178.799 65.6332 159.542
RightHand  0.397112 -6.60571 -36.1102
LeftUpLeg  -15.3055 11.5755 4.0484
LeftLeg  38.483 6.95135 4.80221
LeftFoot  -8.57099 -0.0932095 -1.08228
LeftToes  -22.1712 1.7763e-006 6.54387e-008
233
root  -17.267 32.9877 -13.0636 179.351 5.85367 178.87
RightUpLeg  -17.3018 -13.4441 -4.20993
RightLeg  37.5545 -0.783689 -0.54601
RightFoot  -9.08621 -0.0147859 0.3651
RightToes  -25.9523 -0.117064 -0.222873
Spine  -0.166134 0.365891 1.29153
Spine1  -0.135199 0.887378 3.30059
HEad  -64.9 -6.49774 5.84415
LeftShoulder1  -1.94126e-019 -3.10601e-018 -2.51263e-017
LeftArm  3.26568 -18.4917 -78.9852
LeftForeArm  158.963 -64.0897 -158.459
LeftHand  -1.07005 -0.601468 20.7391
RightShoulder  -4.96962e-017 0 -2.36833e-017
RightArm  1.50832 18.6634 77.4786
RightForeArm  179.042 65.926 159.043
RightHand  0.730153 -7.51237 -37.9902
LeftUpLeg  -15.7364 10.1674 4.06671
LeftLeg  38.948 6.1595 4.33276
LeftFoot  -8.59139 -0.0829967 -0.94337
LeftToes  -22.7777 1.7763e-006 6.54387e-008
234
root  -17.2534 33.0525 -13.1413 179.373 3.85167 178.985
RightUpLeg  -16.4362 -14.8726 -4.30895
RightLeg  36.8855 -1.23326 -0.825843
RightFoot  -9.06024 -0.00829473 0.449514
RightToes  -25.8358 -0.11649 -0.221545
Spine  -0.352373 0.504993 1.22257
Spine1  -0.475436 1.18395 3.1576
HEad  -64.0351 -7.35692 5.55314
LeftShoulder1  -1.94126e-019 -3.10601e-018 -2.51263e-017
LeftArm  4.71101 -17.5952 -79.2996
LeftForeArm  160.406 -63.9306 -158.746
LeftHand  -1.09695 -0.712505 20.8739
RightShoulder  -4.96962e-017 0 -2.36833e-017
RightArm  5.0492 18.9672 78.77
RightForeArm  179.753 66.8592 158.209
RightHand  0.498897 -6.88623 -36.8445
LeftUpLeg  -15.7451 8.65305 4.05995
LeftLeg  38.384 5.81048 4.00408
LeftFoot  -8.20423 -0.0705714 -0.822463
LeftToes  -22.8809 1.7763e-006 6.54387e-008
235
root  -17.2193 33.2011 -13.238 179.476 2.04765 179.18
RightUpLeg  -15.196 -15.8988 -4.23546
RightLeg  35.2792 -1.89658 -1.18256
RightFoot  -8.53865 -0.00105899 0.544552
RightToes  -25.9651 -0.115882 -0.220061
Spine  -0.568762 0.786155 1.1159
Spine1  -0.88184 1.73544 2.95608
HEad  -63.4496 -8.48135 5.58845
LeftShoulder1  -1.94126e-019 -3.10601e-018 -2.51263e-017
LeftArm  10.1239 -17.1354 -79.8891
LeftForeArm  161.878 -63.7619 -159.041
LeftHand  -1.18132 -1.62063 19.6249
RightShoulder  -4.96962e-017 0 -2.36833e-017
RightArm  12.2654 19.6659 79.94
RightForeArm  -178.484 68.1858 156.995
RightHand  -0.0661918 -5.15412 -33.1738
LeftUpLeg  -15.3501 7.05954 4.15678
LeftLeg  37.0134 5.70556 3.73497
LeftFoot  -7.4125 -0.0555894 -0.69663
LeftToes  -23.2675 1.7763e-006 6.54387e-008
236
root  -17.178 33.3787 -13.3358 179.701 0.0906219 179.346
RightUpLeg  -13.8901 -16.9635 -4.13907
RightLeg  33.3203 -2.68416 -1.5397
RightFoot  -7.86298 0.0048758 0.635121
RightToes  -26.0339 -0.11525 -0.218511
Spine  -0.765594 1.05152 0.939627
Spine1  -1.26598 2.26212 2.60539
HEad  -63.4151 -9.3896 5.92948
LeftShoulder1  -1.94126e-019 -3.10601e-018 -2.51263e-017
LeftArm  15.4297 -16.8624 -80.3184
LeftForeArm  161.291 -63.3725 -159.312
LeftHand  -0.895012 0.673023 21.9572
RightShoulder  -4.96962e-017 0 -2.36833e-017
RightArm  19.6935 20.6518 80.8462
RightForeArm  -179.204 69.3124 155.585
RightHand  0.105041 -5.69989 -35.9639
LeftUpLeg  -14.9466 5.2067 4.20453
LeftLeg  35.3011 5.74285 3.51979
LeftFoot  -6.39992 -0.0408386 -0.568929
LeftToes  -23.4097 1.7763e-006 6.54387e-008
237
root  -17.1296 33.5274 -13.4013 179.904 -2.24084 179.587
RightUpLeg  -12.6356 -18.2785 -3.958
RightLeg  31.4988 -3.60796 -1.9126
RightFoot  -7.23379 0.00995193 0.727963
RightToes  -25.9161 -0.114605 -0.21698
Spine  -0.814869 1.24915 0.668301
Spine1  -1.34329 2.67943 2.03622
HEad  -64.1047 -10.147 6.84711
LeftShoulder1  -1.94126e-019 -3.10601e-018 -2.51263e-017
LeftArm  11.1972 -14.9828 -79.7356
LeftForeArm  163.455 -62.1985 -160.477
LeftHand  -1.29322 -2.77655 18.5021
RightShoulder  -4.96962e-017 0 -2.36833e-017
RightArm  17.607 20.246 80.9932
RightForeArm  -173.557 68.0106 157.734
RightHand  -0.519232 -3.54021 -31.9949
LeftUpLeg  -14.7832 2.95738 4.3349
LeftLeg  33.8358 5.74431 3.32253
LeftFoot  -5.44482 -0.0289307 -0.44689
LeftToes  -23.6686 1.7763e-006 6.54387e-008
